<svg width="21" height="20" viewBox="0 0 21 20" fill="none" xmlns="http://www.w3.org/2000/svg">
<path d="M16.1117 9.23576H4.32832C3.39864 9.23576 2.64499 9.97633 2.64499 10.8899V16.6792C2.64499 17.5928 3.39864 18.3333 4.32832 18.3333H16.1117C17.0413 18.3333 17.795 17.5928 17.795 16.6792V10.8899C17.795 9.97633 17.0413 9.23576 16.1117 9.23576Z" stroke="white" stroke-linecap="round" stroke-linejoin="round"/>
<path d="M6.01166 9.23576V5.92755C6.01166 4.83081 6.45503 3.77899 7.24425 3.00348C8.03347 2.22797 9.10387 1.79229 10.22 1.79229C11.3361 1.79229 12.4065 2.22797 13.1957 3.00348C13.9849 3.77899 14.4283 4.83081 14.4283 5.92755V9.23576" stroke="white" stroke-linecap="round" stroke-linejoin="round"/>
</svg>
