<svg width="125" height="101" viewBox="0 0 125 101" fill="none" xmlns="http://www.w3.org/2000/svg">
<path d="M1.9 2H15.6889C17.8894 2 19.831 3.41576 20.471 5.48695L42.0572 75.3435C42.6971 77.4146 44.6387 78.8304 46.8391 78.8304H95.4751C97.762 78.8304 99.7578 77.3033 100.32 75.1226L109.028 41.3572C109.59 39.1763 111.586 37.6493 113.873 37.6493H122.48" stroke="white" stroke-width="3.75648" stroke-linecap="round"/>
<path d="M73.1993 21.594C72.4673 20.874 71.2806 20.874 70.5487 21.594L58.6205 33.3288C57.8887 34.0489 57.8887 35.2163 58.6205 35.9364C59.3525 36.6565 60.5394 36.6565 61.2713 35.9364L71.8739 25.5057L82.4766 35.9364C83.2086 36.6565 84.3952 36.6565 85.1272 35.9364C85.8592 35.2163 85.8592 34.0489 85.1272 33.3288L73.1993 21.594ZM73.7483 57.3179V22.8979H69.9997V57.3179H73.7483Z" fill="white"/>
<path d="M58.7538 99.1137C61.8592 99.1137 64.3767 96.637 64.3767 93.5819C64.3767 90.5267 61.8592 88.0501 58.7538 88.0501C55.6483 88.0501 53.1309 90.5267 53.1309 93.5819C53.1309 96.637 55.6483 99.1137 58.7538 99.1137Z" stroke="white" stroke-width="3.00518"/>
<path d="M86.2435 99.1137C89.349 99.1137 91.8665 96.637 91.8665 93.5819C91.8665 90.5267 89.349 88.0501 86.2435 88.0501C83.1381 88.0501 80.6206 90.5267 80.6206 93.5819C80.6206 96.637 83.1381 99.1137 86.2435 99.1137Z" stroke="white" stroke-width="3.00518"/>
</svg>
